<svg id="visual" viewBox="0 0 900 600" width="900" height="600" xmlns="http://www.w3.org/2000/svg" xmlns:xlink="http://www.w3.org/1999/xlink" version="1.1"><g stroke-width="1" stroke-linejoin="bevel"><path d="M509 261L568 221L523 166Z" fill="#246688" stroke="#246688"></path><path d="M523 166L407 182L509 261Z" fill="#1d4e6b" stroke="#1d4e6b"></path><path d="M637 96L534 94L523 166Z" fill="#297ea6" stroke="#297ea6"></path><path d="M523 166L534 94L407 182Z" fill="#00101c" stroke="#00101c"></path><path d="M509 261L594 317L568 221Z" fill="#297ea6" stroke="#297ea6"></path><path d="M568 221L637 96L523 166Z" fill="#19435d" stroke="#19435d"></path><path d="M407 182L381 260L509 261Z" fill="#19435d" stroke="#19435d"></path><path d="M509 261L487 404L594 317Z" fill="#246688" stroke="#246688"></path><path d="M677 137L637 96L568 221Z" fill="#19435d" stroke="#19435d"></path><path d="M594 317L687 222L568 221Z" fill="#19435d" stroke="#19435d"></path><path d="M687 222L677 137L568 221Z" fill="#1d4e6b" stroke="#1d4e6b"></path><path d="M594 317L687 296L687 222Z" fill="#00101c" stroke="#00101c"></path><path d="M523 0L394 69L534 94Z" fill="#1d4e6b" stroke="#1d4e6b"></path><path d="M534 94L394 69L407 182Z" fill="#081a28" stroke="#081a28"></path><path d="M407 182L303 170L381 260Z" fill="#297ea6" stroke="#297ea6"></path><path d="M381 260L487 404L509 261Z" fill="#19435d" stroke="#19435d"></path><path d="M594 317L684 389L687 296Z" fill="#081a28" stroke="#081a28"></path><path d="M623 0L523 0L534 94Z" fill="#1d4e6b" stroke="#1d4e6b"></path><path d="M487 404L595 421L594 317Z" fill="#081a28" stroke="#081a28"></path><path d="M394 69L303 170L407 182Z" fill="#00101c" stroke="#00101c"></path><path d="M381 260L379 401L487 404Z" fill="#205a7a" stroke="#205a7a"></path><path d="M335 400L379 401L381 260Z" fill="#277297" stroke="#277297"></path><path d="M487 404L471 469L595 421Z" fill="#0c2435" stroke="#0c2435"></path><path d="M637 96L623 0L534 94Z" fill="#1d4e6b" stroke="#1d4e6b"></path><path d="M680 0L623 0L637 96Z" fill="#081a28" stroke="#081a28"></path><path d="M595 421L684 389L594 317Z" fill="#00101c" stroke="#00101c"></path><path d="M379 401L471 469L487 404Z" fill="#081a28" stroke="#081a28"></path><path d="M595 421L736 505L684 389Z" fill="#081a28" stroke="#081a28"></path><path d="M523 0L370 0L394 69Z" fill="#081a28" stroke="#081a28"></path><path d="M394 69L277 116L303 170Z" fill="#081a28" stroke="#081a28"></path><path d="M276 0L277 116L394 69Z" fill="#277297" stroke="#277297"></path><path d="M267 289L335 400L381 260Z" fill="#277297" stroke="#277297"></path><path d="M267 289L381 260L303 170Z" fill="#081a28" stroke="#081a28"></path><path d="M379 401L398 518L471 469Z" fill="#0c2435" stroke="#0c2435"></path><path d="M179 227L267 289L303 170Z" fill="#205a7a" stroke="#205a7a"></path><path d="M684 389L769 311L687 296Z" fill="#297ea6" stroke="#297ea6"></path><path d="M687 296L769 311L687 222Z" fill="#15384f" stroke="#15384f"></path><path d="M687 222L789 104L677 137Z" fill="#081a28" stroke="#081a28"></path><path d="M677 137L680 0L637 96Z" fill="#277297" stroke="#277297"></path><path d="M789 104L680 0L677 137Z" fill="#0c2435" stroke="#0c2435"></path><path d="M834 193L789 104L687 222Z" fill="#246688" stroke="#246688"></path><path d="M471 469L580 514L595 421Z" fill="#081a28" stroke="#081a28"></path><path d="M684 389L833 382L769 311Z" fill="#0c2435" stroke="#0c2435"></path><path d="M769 311L834 193L687 222Z" fill="#112e42" stroke="#112e42"></path><path d="M370 0L276 0L394 69Z" fill="#19435d" stroke="#19435d"></path><path d="M277 116L210 114L303 170Z" fill="#1d4e6b" stroke="#1d4e6b"></path><path d="M276 0L210 114L277 116Z" fill="#081a28" stroke="#081a28"></path><path d="M302 488L398 518L379 401Z" fill="#297ea6" stroke="#297ea6"></path><path d="M471 469L463 600L580 514Z" fill="#297ea6" stroke="#297ea6"></path><path d="M302 488L379 401L335 400Z" fill="#297ea6" stroke="#297ea6"></path><path d="M900 80L779 0L789 104Z" fill="#15384f" stroke="#15384f"></path><path d="M789 104L779 0L680 0Z" fill="#15384f" stroke="#15384f"></path><path d="M210 114L179 227L303 170Z" fill="#205a7a" stroke="#205a7a"></path><path d="M267 289L195 338L335 400Z" fill="#297ea6" stroke="#297ea6"></path><path d="M179 227L195 338L267 289Z" fill="#15384f" stroke="#15384f"></path><path d="M163 429L302 488L335 400Z" fill="#00101c" stroke="#00101c"></path><path d="M736 505L833 382L684 389Z" fill="#277297" stroke="#277297"></path><path d="M900 270L900 237L834 193Z" fill="#1d4e6b" stroke="#1d4e6b"></path><path d="M580 514L736 505L595 421Z" fill="#081a28" stroke="#081a28"></path><path d="M900 270L834 193L769 311Z" fill="#112e42" stroke="#112e42"></path><path d="M834 193L900 80L789 104Z" fill="#0c2435" stroke="#0c2435"></path><path d="M833 382L900 270L769 311Z" fill="#277297" stroke="#277297"></path><path d="M370 600L463 600L398 518Z" fill="#1d4e6b" stroke="#1d4e6b"></path><path d="M398 518L463 600L471 469Z" fill="#297ea6" stroke="#297ea6"></path><path d="M580 514L710 600L736 505Z" fill="#297ea6" stroke="#297ea6"></path><path d="M463 600L579 600L580 514Z" fill="#19435d" stroke="#19435d"></path><path d="M276 0L186 0L210 114Z" fill="#19435d" stroke="#19435d"></path><path d="M210 114L113 186L179 227Z" fill="#15384f" stroke="#15384f"></path><path d="M900 237L900 80L834 193Z" fill="#0c2435" stroke="#0c2435"></path><path d="M736 505L799 506L833 382Z" fill="#15384f" stroke="#15384f"></path><path d="M833 382L900 425L900 270Z" fill="#1d4e6b" stroke="#1d4e6b"></path><path d="M710 600L799 506L736 505Z" fill="#0c2435" stroke="#0c2435"></path><path d="M91 70L113 186L210 114Z" fill="#246688" stroke="#246688"></path><path d="M179 227L81 328L195 338Z" fill="#19435d" stroke="#19435d"></path><path d="M331 600L370 600L398 518Z" fill="#277297" stroke="#277297"></path><path d="M331 600L398 518L302 488Z" fill="#205a7a" stroke="#205a7a"></path><path d="M81 328L163 429L195 338Z" fill="#246688" stroke="#246688"></path><path d="M195 338L163 429L335 400Z" fill="#081a28" stroke="#081a28"></path><path d="M187 523L331 600L302 488Z" fill="#19435d" stroke="#19435d"></path><path d="M579 600L710 600L580 514Z" fill="#1d4e6b" stroke="#1d4e6b"></path><path d="M900 504L900 425L799 506Z" fill="#297ea6" stroke="#297ea6"></path><path d="M799 506L900 425L833 382Z" fill="#19435d" stroke="#19435d"></path><path d="M900 80L900 0L779 0Z" fill="#297ea6" stroke="#297ea6"></path><path d="M186 0L91 70L210 114Z" fill="#15384f" stroke="#15384f"></path><path d="M113 186L81 328L179 227Z" fill="#205a7a" stroke="#205a7a"></path><path d="M0 195L81 328L113 186Z" fill="#277297" stroke="#277297"></path><path d="M163 429L187 523L302 488Z" fill="#1d4e6b" stroke="#1d4e6b"></path><path d="M139 515L187 523L163 429Z" fill="#19435d" stroke="#19435d"></path><path d="M825 600L900 504L799 506Z" fill="#297ea6" stroke="#297ea6"></path><path d="M81 328L91 425L163 429Z" fill="#081a28" stroke="#081a28"></path><path d="M186 0L85 0L91 70Z" fill="#205a7a" stroke="#205a7a"></path><path d="M91 70L0 195L113 186Z" fill="#0c2435" stroke="#0c2435"></path><path d="M91 425L139 515L163 429Z" fill="#205a7a" stroke="#205a7a"></path><path d="M187 523L168 600L331 600Z" fill="#277297" stroke="#277297"></path><path d="M710 600L825 600L799 506Z" fill="#246688" stroke="#246688"></path><path d="M0 67L0 195L91 70Z" fill="#081a28" stroke="#081a28"></path><path d="M81 328L0 409L91 425Z" fill="#19435d" stroke="#19435d"></path><path d="M71 600L168 600L139 515Z" fill="#246688" stroke="#246688"></path><path d="M139 515L168 600L187 523Z" fill="#246688" stroke="#246688"></path><path d="M0 195L0 324L81 328Z" fill="#15384f" stroke="#15384f"></path><path d="M91 425L0 488L139 515Z" fill="#081a28" stroke="#081a28"></path><path d="M85 0L0 67L91 70Z" fill="#246688" stroke="#246688"></path><path d="M825 600L900 600L900 504Z" fill="#1d4e6b" stroke="#1d4e6b"></path><path d="M0 324L0 409L81 328Z" fill="#205a7a" stroke="#205a7a"></path><path d="M85 0L0 0L0 67Z" fill="#0c2435" stroke="#0c2435"></path><path d="M0 409L0 488L91 425Z" fill="#19435d" stroke="#19435d"></path><path d="M0 488L71 600L139 515Z" fill="#297ea6" stroke="#297ea6"></path><path d="M0 488L0 600L71 600Z" fill="#00101c" stroke="#00101c"></path></g></svg>